<?xml version="1.0" encoding="UTF-8"?>
<svg version="1.1" xmlns="http://www.w3.org/2000/svg" width="192" height="108">
<path d="M0 0 C63.36 0 126.72 0 192 0 C192 35.64 192 71.28 192 108 C128.64 108 65.28 108 0 108 C0 72.36 0 36.72 0 0 Z " fill="#FDFEFE" transform="translate(0,0)"/>
<path d="M0 0 C0 1.65 0 3.3 0 5 C-0.99 5 -1.98 5 -3 5 C-2.67 5.99 -2.34 6.98 -2 8 C-1.01 8 -0.02 8 1 8 C1.66 11.3 2.32 14.6 3 18 C2.01 18 1.02 18 0 18 C0.680625 18.556875 1.36125 19.11375 2.0625 19.6875 C4 22 4 22 4.1875 24.375 C2.42685353 28.26695536 -0.5180803 30.59762746 -4 33 C-7.04940673 34.01646891 -9.30369903 34.19844676 -12.5 34.25 C-13.93859375 34.28867188 -13.93859375 34.28867188 -15.40625 34.328125 C-18.36443253 33.95389709 -19.20113073 33.30935919 -21 31 C-20.030625 30.649375 -19.06125 30.29875 -18.0625 29.9375 C-13.79871444 28.14862052 -10.52651636 25.39039756 -7.015625 22.42578125 C-5 21 -5 21 -2 21 C-2.66868314 17.88667752 -2.66868314 17.88667752 -5.0625 16.8125 C-5.701875 16.544375 -6.34125 16.27625 -7 16 C-7 15.34 -7 14.68 -7 14 C-7.66 13.67 -8.32 13.34 -9 13 C-8.71125 13.680625 -8.4225 14.36125 -8.125 15.0625 C-7.98091703 18.44844978 -8.37448015 18.95875992 -10.4375 21.5 C-13.68083012 24.93989558 -17.45820948 28.46461737 -22 30 C-24.47744473 29.22637414 -25.67426808 28.41922904 -27.265625 26.37109375 C-29.8899309 21.21620715 -31.01873336 16.7693573 -30 11 C-28.06997533 5.58942522 -24.57435136 2.30910524 -20 -1 C-13.2463067 -3.2512311 -6.67978485 -1.94321014 0 0 Z " fill="#0A6689" transform="translate(67,36)"/>
<path d="M0 0 C4.021875 -0.0928125 4.021875 -0.0928125 8.125 -0.1875 C8.95789551 -0.21481201 9.79079102 -0.24212402 10.64892578 -0.27026367 C15.50216616 -0.32411136 18.8010775 0.298824 23 3 C24.54586876 6.09173752 24.29359521 8.59429552 24 12 C22 14.4375 22 14.4375 20 16 C21.58962659 20.03520597 23.28232318 24.01811282 25 28 C22.36 28 19.72 28 17 28 C16.68546875 27.36191406 16.3709375 26.72382812 16.046875 26.06640625 C15.61890625 25.24011719 15.1909375 24.41382812 14.75 23.5625 C14.33234375 22.73878906 13.9146875 21.91507813 13.484375 21.06640625 C12.01047374 18.54473322 12.01047374 18.54473322 8 18 C8 21.3 8 24.6 8 28 C5.36 28 2.72 28 0 28 C0 18.76 0 9.52 0 0 Z " fill="#137FA7" transform="translate(125,36)"/>
<path d="M0 0 C2.70871555 1.40853209 4.65192226 3.00163596 7 5 C5.68 6.32 4.36 7.64 3 9 C2.29875 8.690625 1.5975 8.38125 0.875 8.0625 C-2.08936657 6.96697322 -4.87698108 6.43577008 -8 6 C-8 7.32 -8 8.64 -8 10 C-6.75283203 10.25523438 -6.75283203 10.25523438 -5.48046875 10.515625 C-4.39378906 10.75796875 -3.30710937 11.0003125 -2.1875 11.25 C-0.56908203 11.59804688 -0.56908203 11.59804688 1.08203125 11.953125 C4.34856715 13.12505488 5.3487019 13.99712572 7 17 C7.56517408 20.79474027 7.33050256 22.46140324 5.3125 25.75 C1.84662745 29.12220032 -0.65346913 29.8775881 -5.4375 30.3125 C-10.12309228 29.90148313 -13.27507068 28.4374411 -16.875 25.4375 C-18 24 -18 24 -18 22 C-15 20 -15 20 -13 20.25 C-11 21 -11 21 -8 23 C-5.37468476 23.16713569 -5.37468476 23.16713569 -3 23 C-2.67 21.68 -2.34 20.36 -2 19 C-2.67546875 18.90203125 -3.3509375 18.8040625 -4.046875 18.703125 C-7.97270204 18.04503839 -11.21525732 17.48579309 -14.625 15.375 C-16.61858475 11.93153543 -16.94681503 8.87478084 -16 5 C-11.22328836 0.09758542 -6.65400022 -1.01869059 0 0 Z " fill="#14769B" transform="translate(98,35)"/>
<path d="M0 0 C2.64 0 5.28 0 8 0 C8 9.24 8 18.48 8 28 C5.36 28 2.72 28 0 28 C0 18.76 0 9.52 0 0 Z " fill="#167DA3" transform="translate(111,36)"/>
<path d="M0 0 C0.556875 0.226875 1.11375 0.45375 1.6875 0.6875 C0.12739422 4.89978561 -2.7970393 7.03296845 -6.3125 9.6875 C-9.36190673 10.70396891 -11.61619903 10.88594676 -14.8125 10.9375 C-15.7715625 10.96328125 -16.730625 10.9890625 -17.71875 11.015625 C-20.67693253 10.64139709 -21.51363073 9.99685919 -23.3125 7.6875 C-22.24 7.254375 -21.1675 6.82125 -20.0625 6.375 C-17.71883836 5.3914151 -16.17435167 4.57373079 -14.1875 2.9375 C-13.259375 2.31875 -13.259375 2.31875 -12.3125 1.6875 C-11.1059375 1.935 -11.1059375 1.935 -9.875 2.1875 C-5.6288335 3.01602029 -4.1514613 -0.56100828 0 0 Z " fill="#056C93" transform="translate(69.3125,59.3125)"/>
<path d="M0 0 C0.639375 0.33 1.27875 0.66 1.9375 1 C-0.0625 3 -0.0625 3 -3.0625 4 C-1.7425 4.99 -0.4225 5.98 0.9375 7 C0.6075 7.66 0.2775 8.32 -0.0625 9 C-1.0525 8.34 -2.0425 7.68 -3.0625 7 C-2.4025 8.65 -1.7425 10.3 -1.0625 12 C-2.9375 11.75 -2.9375 11.75 -5.0625 11 C-5.7462045 9.67532254 -6.41214186 8.34136367 -7.0625 7 C-10.58998124 4.42222525 -14.83873123 4.42237688 -19.0625 4 C-13.70862515 -1.7231076 -7.37165746 -2.40707182 0 0 Z " fill="#076D92" transform="translate(62.0625,35)"/>
<path d="M0 0 C0.99 0.33 1.98 0.66 3 1 C3.33 1.99 3.66 2.98 4 4 C4.66 4.33 5.32 4.66 6 5 C6.33 4.34 6.66 3.68 7 3 C7.3125 5.3125 7.3125 5.3125 7 8 C5.37094957 9.06017568 3.69613075 10.05083286 2 11 C0.36935285 12.2007016 -1.25560735 13.40916207 -2.875 14.625 C-7.07760202 17.58748995 -9.84049559 19.10529601 -15 19 C-15.99 18.34 -16.98 17.68 -18 17 C-17.505 15.515 -17.505 15.515 -17 14 C-15.68 14.66 -14.36 15.32 -13 16 C-7.44849843 12.65486444 -2.94717844 9.89435687 0 4 C0 2.68 0 1.36 0 0 Z " fill="#C0C6C8" transform="translate(58,49)"/>
<path d="M0 0 C3.53905047 3.06717707 4.80932924 5.4924607 6 10 C6.1953125 13.6484375 6.1953125 13.6484375 6.125 17.375 C6.10695313 18.62023437 6.08890625 19.86546875 6.0703125 21.1484375 C6.04710938 22.08945312 6.02390625 23.03046875 6 24 C5.34 24 4.68 24 4 24 C2.2856382 22.04072937 0.61594832 20.04119788 -1 18 C-0.34 17.67 0.32 17.34 1 17 C1.66 17.33 2.32 17.66 3 18 C2.67 17.0925 2.34 16.185 2 15.25 C1 12 1 12 1 8 C-0.32 8.33 -1.64 8.66 -3 9 C-3 7.68 -3 6.36 -3 5 C-2.01 5 -1.02 5 0 5 C-0.2784375 4.0409375 -0.2784375 4.0409375 -0.5625 3.0625 C-0.706875 2.381875 -0.85125 1.70125 -1 1 C-0.67 0.67 -0.34 0.34 0 0 Z " fill="#859EA9" transform="translate(67,36)"/>
<path d="M0 0 C2.0234375 0.37109375 2.0234375 0.37109375 4.0234375 2.37109375 C2.4765625 2.64953125 2.4765625 2.64953125 0.8984375 2.93359375 C-3.84330512 4.23733154 -6.16966049 7.52574082 -8.9765625 11.37109375 C-9.6365625 11.04109375 -10.2965625 10.71109375 -10.9765625 10.37109375 C-11.3474467 7.12585701 -11.04182188 5.49877516 -9.5390625 2.55859375 C-6.23610717 -0.26100226 -4.21049353 -0.11890098 0 0 Z " fill="#0B5A7A" transform="translate(48.9765625,38.62890625)"/>
<path d="M0 0 C5.75 -0.125 5.75 -0.125 8 1 C8.125 3.375 8.125 3.375 8 6 C6 8 6 8 2.875 8.125 C1.451875 8.063125 1.451875 8.063125 0 8 C0 5.36 0 2.72 0 0 Z " fill="#E7F1F6" transform="translate(133,41)"/>
<path d="M0 0 C0.66 0 1.32 0 2 0 C3.1446875 1.175625 3.1446875 1.175625 4.3125 2.375 C6.89815676 4.90052521 8.60841682 5.93407386 12 7 C9.82575883 9.50037734 8.26954202 10.43628586 5 11 C1.7089159 7.39042389 0.45336079 4.87362847 0 0 Z " fill="#0F5F80" transform="translate(38,55)"/>
<path d="M0 0 C0.99 0.33 1.98 0.66 3 1 C3.33 1.99 3.66 2.98 4 4 C4.66 4.33 5.32 4.66 6 5 C6.33 4.34 6.66 3.68 7 3 C7.3125 5.3125 7.3125 5.3125 7 8 C4.12921103 10.23283587 1.49478016 11.19351227 -2 12 C-1.47916667 10.046875 -0.95833333 8.09375 -0.4375 6.140625 C0.13349349 3.71098139 0.13349349 3.71098139 0 0 Z " fill="#A3A7A9" transform="translate(58,49)"/>
<path d="M0 0 C3.24050867 2.82237852 4.67495711 4.66609474 5 9 C4.75 11.25 4.75 11.25 4 13 C3.01 13.33 2.02 13.66 1 14 C1 12.02 1 10.04 1 8 C-0.32 8.33 -1.64 8.66 -3 9 C-3 7.68 -3 6.36 -3 5 C-2.01 5 -1.02 5 0 5 C-0.2784375 4.0409375 -0.2784375 4.0409375 -0.5625 3.0625 C-0.706875 2.381875 -0.85125 1.70125 -1 1 C-0.67 0.67 -0.34 0.34 0 0 Z " fill="#B5BBBD" transform="translate(67,36)"/>
<path d="M0 0 C-2.64725673 2.89937642 -4.59839484 3.89023574 -8.59375 4.203125 C-9.5528125 4.21859375 -10.511875 4.2340625 -11.5 4.25 C-12.4590625 4.27578125 -13.418125 4.3015625 -14.40625 4.328125 C-17.36443253 3.95389709 -18.20113073 3.30935919 -20 1 C-18.95199219 1.01740234 -18.95199219 1.01740234 -17.8828125 1.03515625 C-16.97273438 1.04417969 -16.06265625 1.05320312 -15.125 1.0625 C-13.76761719 1.07990234 -13.76761719 1.07990234 -12.3828125 1.09765625 C-8.13582566 0.92359941 -4.51746725 -0.07286237 0 0 Z " fill="#3B84AA" transform="translate(66,66)"/>
<path d="M0 0 C1.5843317 0.08768248 3.16753567 0.19587329 4.75 0.3125 C6.07257812 0.39951172 6.07257812 0.39951172 7.421875 0.48828125 C10.32303774 1.0641181 11.79225607 2.07596148 14 4 C13.67 4.66 13.34 5.32 13 6 C12.01 5.34 11.02 4.68 10 4 C10.66 5.65 11.32 7.3 12 9 C10.125 8.75 10.125 8.75 8 8 C7.71125 7.38125 7.4225 6.7625 7.125 6.125 C5.49149048 3.03948202 3.11834294 2.35580128 0 1 C0 0.67 0 0.34 0 0 Z " fill="#B8BBBC" transform="translate(49,38)"/>
<path d="M0 0 C0.7425 0.53625 1.485 1.0725 2.25 1.625 C1.92 2.285 1.59 2.945 1.25 3.625 C-0.41321482 3.97515049 -2.08034549 4.30697057 -3.75 4.625 C-4.74 5.285 -5.73 5.945 -6.75 6.625 C-8.9375 6.25 -8.9375 6.25 -10.75 5.625 C-4.82692308 -2.41346154 -4.82692308 -2.41346154 0 0 Z " fill="#0C5A7A" transform="translate(68.75,56.375)"/>
<path d="M0 0 C0.99 0.33 1.98 0.66 3 1 C-1.81585285 4.16040343 -7.15606472 7 -13 7 C-12.34 5.68 -11.68 4.36 -11 3 C-10.01 3 -9.02 3 -8 3 C-4.56843911 2.48526587 -2.95923044 1.9728203 0 0 Z " fill="#076488" transform="translate(67,59)"/>
<path d="M0 0 C-2.74877106 2.74877106 -4.2388285 3.97015014 -8.1875 4.125 C-9.115625 4.08375 -10.04375 4.0425 -11 4 C-7.39987093 0.15158617 -5.25169925 -1.6298377 0 0 Z " fill="#3A87A6" transform="translate(54,35)"/>
<path d="M0 0 C-0.33 0.99 -0.66 1.98 -1 3 C-3.25 3.6875 -3.25 3.6875 -6 4 C-8.3125 2.5625 -8.3125 2.5625 -10 1 C-3.375 -1.125 -3.375 -1.125 0 0 Z " fill="#196381" transform="translate(67,37)"/>
<path d="M0 0 C2.475 0.99 2.475 0.99 5 2 C5 2.99 5 3.98 5 5 C4.01 4.34 3.02 3.68 2 3 C2.66 4.65 3.32 6.3 4 8 C2.68 7.67 1.36 7.34 0 7 C0 4.69 0 2.38 0 0 Z " fill="#97A2A7" transform="translate(57,39)"/>
<path d="M0 0 C0 1.98 0 3.96 0 6 C-1.65 6 -3.3 6 -5 6 C-5 4.68 -5 3.36 -5 2 C-1.125 0 -1.125 0 0 0 Z " fill="#BFC2C4" transform="translate(69,39)"/>
<path d="M0 0 C3.375 -0.125 3.375 -0.125 7 0 C7.66 0.66 8.32 1.32 9 2 C2.25 3.125 2.25 3.125 0 2 C0 1.34 0 0.68 0 0 Z " fill="#086487" transform="translate(53,36)"/>
<path d="M0 0 C0.66 0 1.32 0 2 0 C0.84826645 2.46800047 -0.04783565 4.04783565 -2 6 C-4.125 5.625 -4.125 5.625 -6 5 C-5.01 5 -4.02 5 -3 5 C-2.5359375 4.0409375 -2.5359375 4.0409375 -2.0625 3.0625 C-1 1 -1 1 0 0 Z " fill="#14759B" transform="translate(69,60)"/>
<path d="M0 0 C0.33 1.32 0.66 2.64 1 4 C-0.65 5.32 -2.3 6.64 -4 8 C-3.40072174 4.64404172 -2.15377564 2.62198774 0 0 Z " fill="#176D8D" transform="translate(42,39)"/>
</svg>
