<?xml version="1.0" standalone="no"?>
<!DOCTYPE svg PUBLIC "-//W3C//DTD SVG 20010904//EN"
 "http://www.w3.org/TR/2001/REC-SVG-20010904/DTD/svg10.dtd">
<svg version="1.0" xmlns="http://www.w3.org/2000/svg"
 width="512.000000pt" height="362.000000pt" viewBox="0 0 512.000000 362.000000"
 preserveAspectRatio="xMidYMid meet">
<metadata>
Created by potrace 1.16, written by Peter Selinger 2001-2019
</metadata>
<g transform="translate(0.000000,362.000000) scale(0.100000,-0.100000)"
fill="#000000" stroke="none">
<path d="M1825 2196 c-43 -14 -105 -44 -105 -51 0 -2 30 -4 68 -3 97 2 206
-27 237 -64 32 -38 32 -53 0 -32 -53 35 -69 -16 -17 -56 23 -18 23 -20 5 -20
-29 0 -73 38 -89 76 -19 46 -90 79 -170 79 -72 0 -87 -10 -129 -87 -37 -67
-46 -180 -21 -254 18 -54 61 -121 89 -138 27 -17 97 26 194 118 83 78 84 80
78 118 -8 43 6 68 37 68 16 0 17 -3 7 -21 -8 -16 -8 -27 1 -44 18 -33 49 -39
60 -12 7 19 9 20 15 5 3 -9 5 -29 3 -45 -2 -21 -9 -29 -28 -31 -14 -2 -48 -26
-76 -52 -58 -55 -140 -109 -199 -132 l-40 -16 54 -16 c72 -21 136 -20 210 3
71 22 120 57 162 114 37 51 36 63 -2 86 -34 21 -69 67 -69 91 1 10 9 6 25 -12
13 -16 31 -28 40 -28 22 0 19 43 -5 65 -11 10 -17 22 -14 26 3 5 0 9 -7 9 -10
0 -10 3 -1 12 18 18 14 46 -9 69 -19 19 -22 20 -39 4 -17 -15 -19 -15 -24 3
-9 28 3 51 29 58 31 8 40 33 18 50 -17 13 -17 13 1 14 15 0 16 3 6 15 -7 9
-27 15 -44 15 -17 -1 -56 6 -86 14 -64 19 -110 19 -165 2z"/>
<path d="M2495 2191 c-89 -23 -135 -75 -135 -151 0 -53 27 -103 67 -123 15 -8
61 -22 101 -32 82 -20 112 -47 93 -84 -26 -47 -116 -37 -169 18 l-36 38 -43
-31 c-24 -16 -43 -33 -43 -36 0 -17 81 -81 119 -95 60 -21 166 -19 216 4 96
43 132 147 79 228 -18 29 -78 59 -141 73 -85 18 -103 29 -103 61 0 58 83 62
146 7 l34 -30 40 32 c22 17 40 35 40 40 0 10 -42 40 -87 64 -38 19 -135 29
-178 17z"/>
<path d="M2880 1940 l0 -250 65 0 65 0 0 250 0 250 -65 0 -65 0 0 -250z"/>
<path d="M3140 1941 l0 -251 65 0 65 0 0 90 0 90 35 0 c34 0 36 -2 80 -90 l45
-90 70 0 c39 0 70 2 70 3 0 2 -25 48 -55 103 -48 86 -53 100 -39 109 64 40 92
94 78 152 -25 103 -70 125 -266 131 l-148 4 0 -251z m260 139 c11 -11 20 -33
20 -50 0 -48 -30 -70 -95 -70 l-55 0 0 70 0 70 55 0 c42 0 60 -5 75 -20z"/>
</g>
</svg>
