<?xml version="1.0" standalone="no"?>
<!DOCTYPE svg PUBLIC "-//W3C//DTD SVG 20010904//EN"
 "http://www.w3.org/TR/2001/REC-SVG-20010904/DTD/svg10.dtd">
<svg version="1.0" xmlns="http://www.w3.org/2000/svg"
 width="192.000000pt" height="136.000000pt" viewBox="0 0 192.000000 136.000000"
 preserveAspectRatio="xMidYMid meet">
<metadata>
Created by potrace 1.16, written by Peter Selinger 2001-2019
</metadata>
<g transform="translate(0.000000,136.000000) scale(0.100000,-0.100000)"
fill="#000000" stroke="none">
<path d="M675 821 c-17 -7 -13 -9 20 -15 48 -8 77 -25 57 -33 -10 -4 -10 -8
-1 -19 7 -9 8 -14 1 -14 -6 0 -19 11 -29 25 -11 16 -32 28 -55 31 -33 6 -38 4
-52 -24 -30 -58 -12 -152 30 -152 22 0 94 70 94 91 0 18 1 18 20 -1 l20 -20
-36 -33 c-20 -17 -46 -37 -58 -44 -19 -11 -19 -12 -3 -18 26 -10 81 3 111 26
31 24 32 35 9 62 -10 11 -13 17 -7 14 16 -9 37 18 31 40 -4 14 -5 13 -6 -5 -1
-14 -5 -20 -12 -17 -6 4 -8 14 -5 22 4 9 -1 17 -14 20 -24 6 -25 12 -5 27 8 6
11 16 7 23 -9 15 -91 25 -117 14z"/>
<path d="M908 809 c-26 -15 -23 -64 4 -83 12 -9 30 -16 39 -16 27 0 42 -25 23
-40 -13 -11 -20 -11 -46 4 -21 13 -33 15 -40 8 -16 -16 7 -40 46 -47 89 -17
145 75 63 105 -47 17 -60 25 -61 35 -1 14 43 19 57 6 8 -6 18 -6 27 0 40 26
-70 53 -112 28z"/>
<path d="M1180 730 c0 -82 2 -90 19 -90 15 0 21 8 23 32 4 44 24 46 45 4 12
-26 23 -36 40 -36 28 0 28 3 6 41 -16 26 -16 29 0 47 43 47 4 92 -80 92 l-53
0 0 -90z"/>
</g>
</svg>
