<?xml version="1.0" encoding="UTF-8"?>
<svg version="1.1" xmlns="http://www.w3.org/2000/svg" width="512" height="288">
<path d="M0 0 C168.96 0 337.92 0 512 0 C512 95.04 512 190.08 512 288 C343.04 288 174.08 288 0 288 C0 192.96 0 97.92 0 0 Z " fill="#FEFEFE" transform="translate(0,0)"/>
<path d="M0 0 C0.90814453 -0.020625 1.81628906 -0.04125 2.75195312 -0.0625 C8.25840736 -0.09403302 12.62400499 0.61457388 17.77416992 2.54638672 C20.62364155 3.5299988 23.37698599 3.76520034 26.375 3.9375 C27.40753906 4.00324219 28.44007813 4.06898437 29.50390625 4.13671875 C30.26574219 4.17410156 31.02757812 4.21148437 31.8125 4.25 C32.8025 6.725 32.8025 6.725 33.8125 9.25 C33.1525 9.58 32.4925 9.91 31.8125 10.25 C32.3075 10.745 32.3075 10.745 32.8125 11.25 C32.52519945 13.58944736 32.19313221 15.9239143 31.8125 18.25 C30.843125 18.53875 29.87375 18.8275 28.875 19.125 C25.70585797 19.89214682 25.70585797 19.89214682 24.8125 22.25 C24.772508 24.24960012 24.76903201 26.25047242 24.8125 28.25 C26.93614481 28.47609337 26.93614481 28.47609337 28.4375 26.75 C28.89125 26.255 29.345 25.76 29.8125 25.25 C33.32887881 27.23751846 35.45611091 28.57998851 37.375 32.1875 C37.8125 35.25 37.8125 35.25 36.4375 38.125 C35.90125 38.82625 35.365 39.5275 34.8125 40.25 C37.1556213 39.99438677 39.49093403 39.65729228 41.8125 39.25 C43.05520671 36.76458657 42.76615685 35.48584621 42.4375 32.75 C42.34726563 31.9559375 42.25703125 31.161875 42.1640625 30.34375 C41.90903096 28.19895424 41.90903096 28.19895424 40.8125 26.25 C41.4725 25.59 42.1325 24.93 42.8125 24.25 C43.63002303 25.83074564 44.44131997 27.41471223 45.25 29 C45.70246094 29.88171875 46.15492188 30.7634375 46.62109375 31.671875 C48.81373831 36.41661405 48.92352852 40.25891974 48.875 45.5 C48.86597656 46.76328125 48.85695313 48.0265625 48.84765625 49.328125 C48.83605469 50.29234375 48.82445312 51.2565625 48.8125 52.25 C48.20535156 51.47269531 47.59820312 50.69539063 46.97265625 49.89453125 C44.77843635 47.2082982 42.66111178 45.22211585 39.8125 43.25 C38.8225 43.25 37.8325 43.25 36.8125 43.25 C37.8025 44.301875 37.8025 44.301875 38.8125 45.375 C41.11483203 48.68460229 41.17880156 50.31225823 40.8125 54.25 C37.10956315 54.58663062 35.41715619 54.72736015 32.4375 52.375 C30.8125 50.25 30.8125 50.25 30.8125 48.25 C30.1525 48.25 29.4925 48.25 28.8125 48.25 C31.5496839 54.41248665 34.23286444 59.5795034 40.625 62.5625 C41.7078125 62.9028125 41.7078125 62.9028125 42.8125 63.25 C44.11015742 67.14297227 44.32353727 69.12406951 42.6015625 72.91796875 C35.52140761 84.53134499 26.07379515 91.46780022 13.015625 95.390625 C1.23956984 98.12634911 -11.70099362 97.53048476 -22.1875 91.25 C-22.8475 90.59 -23.5075 89.93 -24.1875 89.25 C-23.47207031 89.0540625 -22.75664063 88.858125 -22.01953125 88.65625 C-7.12986993 84.18742539 5.59441494 75.07983057 16.0625 63.6875 C19.21924963 60.39378396 19.21924963 60.39378396 21.859375 59.75390625 C23.8125 59.75 23.8125 59.75 26.8125 60.25 C26.83937279 58.43757948 26.85883715 56.62504767 26.875 54.8125 C26.88660156 53.80316406 26.89820313 52.79382813 26.91015625 51.75390625 C27.09862676 49.30978933 27.09862676 49.30978933 25.8125 48.25 C25.1525 49.9 24.4925 51.55 23.8125 53.25 C17.45392091 51.93029491 17.45392091 51.93029491 14.75 49.0625 C13.47527813 45.23833439 14.43282756 42.9533313 15.8125 39.25 C12.52174004 39.62904208 12.52174004 39.62904208 9.8125 41.25 C9.94269531 42.04664063 10.07289063 42.84328125 10.20703125 43.6640625 C10.7951542 48.18216592 11.10025546 52.14543659 8.63623047 56.17236328 C4.83883876 60.99773083 0.35518735 65.13927879 -4.1875 69.25 C-4.73116211 69.75756836 -5.27482422 70.26513672 -5.83496094 70.78808594 C-12.38800731 76.8733559 -19.60977335 82.39506387 -28.1875 85.25 C-31.02045348 85.10228548 -32.00776224 84.40686855 -34.15234375 82.53515625 C-45.88824977 69.31192748 -48.2542989 56.05561356 -47.42138672 38.81640625 C-46.54994541 29.25420269 -40.67670178 20.12623171 -34.1875 13.25 C-27.3561849 10.23396684 -15.46095313 11.32530219 -8.625 13.9375 C-7.12314749 14.66314254 -5.64111704 15.43200517 -4.1875 16.25 C-3.50945312 16.61222656 -2.83140625 16.97445312 -2.1328125 17.34765625 C2.24741466 20.02850068 3.52209815 22.49887148 5.015625 27.31640625 C6.46196262 30.82590196 8.64730537 32.20193288 11.8125 34.25 C15.03683127 35.123938 15.03683127 35.123938 17.8125 35.25 C17.3071875 34.88648438 16.801875 34.52296875 16.28125 34.1484375 C10.90855489 29.99099485 10.90855489 29.99099485 10.375 25.875 C10.519375 25.00875 10.66375 24.1425 10.8125 23.25 C13 22.5 13 22.5 15.8125 22.25 C18.625 24.1875 18.625 24.1875 20.8125 26.25 C19.98824953 22.31191444 18.8993057 19.94216993 15.75 17.5 C12.35036907 15.28315733 9.09904289 14.37123927 5.12109375 13.70703125 C2.8125 13.25 2.8125 13.25 0.07397461 12.23364258 C-3.36888254 11.19529604 -6.09400318 11.02053813 -9.6796875 11.0546875 C-10.87851563 11.06113281 -12.07734375 11.06757812 -13.3125 11.07421875 C-15.16875 11.09935547 -15.16875 11.09935547 -17.0625 11.125 C-18.32320312 11.13402344 -19.58390625 11.14304687 -20.8828125 11.15234375 C-23.9845704 11.17584192 -27.08593652 11.20869666 -30.1875 11.25 C-26.90113805 7.69524188 -24.07408458 5.40586655 -19.625 3.5 C-18.69558594 3.09265625 -17.76617187 2.6853125 -16.80859375 2.265625 C-11.16218353 0.07774623 -6.00209972 0.03336817 0 0 Z " fill="#06668A" transform="translate(146.1875,90.75)"/>
<path d="M0 0 C6.208125 -0.061875 12.41625 -0.12375 18.8125 -0.1875 C20.74843018 -0.21481201 22.68436035 -0.24212402 24.67895508 -0.27026367 C33.50408584 -0.34267047 41.64943741 -0.26276997 50 3 C50.65564941 3.25193115 51.31129883 3.5038623 51.98681641 3.76342773 C57.39262975 6.31452633 60.87229547 10.5222926 63 16 C63.97877736 23.62162698 64.08938271 30.31087051 60 37 C58.28125 38.8984375 58.28125 38.8984375 56.5 40.375 C55.9121875 40.87773437 55.324375 41.38046875 54.71875 41.8984375 C53 43 53 43 50 43 C54.37261182 51.84988722 58.79844769 60.65272877 63.56054688 69.30102539 C66 73.78664959 66 73.78664959 66 76 C58.74 76 51.48 76 44 76 C42.1448855 72.33563922 40.29224068 68.67018922 38.44580078 65.00146484 C37.81670569 63.75334278 37.18617759 62.50594195 36.55419922 61.25927734 C35.64696403 59.46901889 34.74527404 57.67595372 33.84375 55.8828125 C33.29912109 54.80402832 32.75449219 53.72524414 32.19335938 52.61376953 C31 50 31 50 31 48 C27.7 48 24.4 48 21 48 C21 57.24 21 66.48 21 76 C14.07 76 7.14 76 0 76 C0 50.92 0 25.84 0 0 Z " fill="#107DA6" transform="translate(334,95)"/>
<path d="M0 0 C4.32528936 2.73415439 8.02234425 6.00204399 11.6015625 9.64453125 C10.10409544 13.53450316 7.89734172 15.11401177 4.4765625 17.39453125 C3.56648438 18.008125 2.65640625 18.62171875 1.71875 19.25390625 C1.02007812 19.7128125 0.32140625 20.17171875 -0.3984375 20.64453125 C-3.38716238 19.2973161 -5.4389307 17.72968896 -7.8359375 15.51953125 C-12.53484134 11.87765871 -16.87187798 12.07766648 -22.640625 12.23828125 C-25.53629033 12.38471313 -25.53629033 12.38471313 -27.3984375 14.64453125 C-27.56521032 18.22797101 -27.56521032 18.22797101 -27.3984375 21.64453125 C-26.76679688 21.8146875 -26.13515625 21.98484375 -25.484375 22.16015625 C-23.56906263 22.67900168 -21.65512428 23.20293206 -19.7421875 23.73046875 C-17.45481135 24.35575616 -15.16282896 24.96436797 -12.8671875 25.55859375 C-2.27823119 28.38998859 5.84002442 30.92193574 11.6015625 40.64453125 C13.6173506 46.69189554 13.72234022 54.06894033 11.1015625 59.95703125 C6.99394846 66.84122064 0.70673816 71.5424846 -6.8828125 73.98046875 C-19.11370522 76.29074849 -32.58792201 76.40331507 -43.3984375 69.64453125 C-47.61755904 66.74055931 -51.47650276 63.5134326 -53.3984375 58.64453125 C-52.12439285 54.71823013 -49.62132906 53.12645896 -46.2734375 50.89453125 C-44.90832031 49.97414063 -44.90832031 49.97414063 -43.515625 49.03515625 C-42.46761719 48.34679687 -42.46761719 48.34679687 -41.3984375 47.64453125 C-38.34060832 48.99357353 -37.3006891 49.76943199 -35.1484375 52.51953125 C-31.36313952 57.2569594 -26.72932743 59.36321695 -20.7734375 60.08203125 C-16.93994664 59.58509725 -14.55318523 58.89792249 -11.3984375 56.64453125 C-10.5942728 53.82995481 -10.3984375 51.54700655 -10.3984375 48.64453125 C-14.93721911 47.23483908 -19.46080814 45.86801282 -24.0859375 44.765625 C-33.37658714 42.52725276 -41.40374589 39.99706774 -47.4609375 32.14453125 C-50.62212536 26.4169435 -50.31195176 19.9580935 -49.3984375 13.64453125 C-46.73983209 6.42348858 -40.94079743 1.68527743 -34.2109375 -1.66796875 C-23.61825159 -5.57812815 -10.07922897 -4.92604571 0 0 Z " fill="#0C7298" transform="translate(267.3984375,97.35546875)"/>
<path d="M0 0 C6.93 0 13.86 0 21 0 C21 25.08 21 50.16 21 76 C14.07 76 7.14 76 0 76 C0 50.92 0 25.84 0 0 Z " fill="#0F79A0" transform="translate(295,95)"/>
<path d="M0 0 C2.33984375 1.56640625 2.33984375 1.56640625 3.86328125 4.34765625 C4.33984375 7.56640625 4.33984375 7.56640625 3.06640625 10.34765625 C-5.4702658 21.39138068 -15.63433255 29.01425883 -29.66015625 31.56640625 C-40.615316 32.730572 -50.98647003 32.36008402 -60.66015625 26.56640625 C-61.32015625 25.90640625 -61.98015625 25.24640625 -62.66015625 24.56640625 C-61.90992187 24.34726563 -61.1596875 24.128125 -60.38671875 23.90234375 C-55.10271004 22.26523274 -50.4915498 20.63895542 -45.91015625 17.50390625 C-41.6920159 14.7912758 -37.67886212 13.78205939 -32.78515625 13.00390625 C-21.99593474 11.2814165 -13.41868772 7.73460392 -4.9140625 0.7265625 C-2.66015625 -0.43359375 -2.66015625 -0.43359375 0 0 Z " fill="#03698F" transform="translate(184.66015625,155.43359375)"/>
<path d="M0 0 C0.763125 0.226875 1.52625 0.45375 2.3125 0.6875 C1.920625 1.739375 1.52875 2.79125 1.125 3.875 C-0.00884663 7.56192747 -0.00884663 7.56192747 1.3125 10.5 C3.76488997 13.18230153 5.82263765 13.83442254 9.3125 14.6875 C9.9725 12.7075 10.6325 10.7275 11.3125 8.6875 C13.3125 10.6875 13.3125 10.6875 13.54296875 12.78125 C13.52878906 13.5753125 13.51460938 14.369375 13.5 15.1875 C13.49355469 15.9815625 13.48710937 16.775625 13.48046875 17.59375 C13.3125 19.6875 13.3125 19.6875 12.3125 21.6875 C11.24128906 21.79191406 10.17007813 21.89632812 9.06640625 22.00390625 C4.47844395 22.83938326 3.30069989 24.17785416 0.25 27.625 C-9.32971129 37.89608281 -23.68015697 49.47884006 -38.0546875 50.92578125 C-43.97681082 51.10104658 -47.17730868 50.61946166 -51.6875 46.6875 C-53.04189668 43.97870665 -52.75251451 41.67816732 -52.6875 38.6875 C-50.35416667 41.02083333 -48.02083333 43.35416667 -45.6875 45.6875 C-34.51230602 45.6875 -24.45529563 34.78285959 -16.6875 27.6875 C-16.14254883 27.20474609 -15.59759766 26.72199219 -15.03613281 26.22460938 C-8.30676732 20.28241454 -8.30676732 20.28241454 -5.11328125 12.14453125 C-5.12553211 8.66587203 -5.12553211 8.66587203 -5.59375 5.40234375 C-5.6875 2.6875 -5.6875 2.6875 -4.38671875 0.796875 C-2.6875 -0.3125 -2.6875 -0.3125 0 0 Z " fill="#B8BABA" transform="translate(160.6875,129.3125)"/>
<path d="M0 0 C0.90814453 -0.020625 1.81628906 -0.04125 2.75195312 -0.0625 C8.25840736 -0.09403302 12.62400499 0.61457388 17.77416992 2.54638672 C20.62364155 3.5299988 23.37698599 3.76520034 26.375 3.9375 C27.40753906 4.00324219 28.44007813 4.06898437 29.50390625 4.13671875 C30.64666016 4.19279297 30.64666016 4.19279297 31.8125 4.25 C32.4725 5.9 33.1325 7.55 33.8125 9.25 C33.1525 9.58 32.4925 9.91 31.8125 10.25 C32.3075 11.24 32.3075 11.24 32.8125 12.25 C32.1525 13.24 31.4925 14.23 30.8125 15.25 C29.27142578 14.816875 29.27142578 14.816875 27.69921875 14.375 C14.84055956 10.75462058 14.84055956 10.75462058 1.703125 11.83203125 C-0.1875 12.25 -0.1875 12.25 -3.1875 11.25 C-5.25248892 11.16684248 -7.3200789 11.14264122 -9.38671875 11.15234375 C-11.19946289 11.15717773 -11.19946289 11.15717773 -13.04882812 11.16210938 C-14.31146484 11.17048828 -15.57410156 11.17886719 -16.875 11.1875 C-18.14923828 11.19201172 -19.42347656 11.19652344 -20.73632812 11.20117188 C-23.88676564 11.21297127 -27.03710949 11.22943403 -30.1875 11.25 C-26.90113805 7.69524188 -24.07408458 5.40586655 -19.625 3.5 C-18.69558594 3.09265625 -17.76617187 2.6853125 -16.80859375 2.265625 C-11.16218353 0.07774623 -6.00209972 0.03336817 0 0 Z " fill="#086A8F" transform="translate(146.1875,90.75)"/>
<path d="M0 0 C14.28944505 -0.43743199 14.28944505 -0.43743199 19 3 C21.47133166 6.70699749 21.55303242 9.70142985 21 14 C19.6875 16.9375 19.6875 16.9375 18 19 C14.37918537 20.20693821 11.0749281 20.10782079 7.3125 20.0625 C3.6928125 20.0315625 3.6928125 20.0315625 0 20 C0 13.4 0 6.8 0 0 Z " fill="#F8FAFC" transform="translate(355,109)"/>
<path d="M0 0 C1.51110352 -0.0309375 1.51110352 -0.0309375 3.05273438 -0.0625 C9.38870353 -0.09552134 13.88227753 0.73928908 19.6875 3.25 C21.22036225 3.58487144 22.76166369 3.8868566 24.3125 4.125 C29.72444987 5.24664764 32.99154733 7.74293953 36.125 12.375 C36.6875 14.25 36.6875 14.25 35.6875 17.25 C34.945 16.59 34.2025 15.93 33.4375 15.25 C30.71507055 12.85788553 30.71507055 12.85788553 26.6875 13.25 C26.09973366 15.9946344 26.09973366 15.9946344 26.6875 19.25 C28.37700867 21.09194554 30.16400904 22.54474195 32.15625 24.05078125 C32.6615625 24.44652344 33.166875 24.84226562 33.6875 25.25 C33.6875 25.58 33.6875 25.91 33.6875 26.25 C28.21774185 26.02674457 25.21099646 24.77530249 21.16796875 21.0625 C19.57381947 19.11082383 18.96365924 17.58757693 18.25 15.1875 C16.93568067 10.98808944 14.85660354 9.50226021 11.11328125 7.35546875 C3.87595227 4.05729789 -1.38848215 2.82514463 -9.3125 3.0625 C-10.61767578 3.08280273 -10.61767578 3.08280273 -11.94921875 3.10351562 C-14.07058627 3.13848322 -16.19162974 3.1922747 -18.3125 3.25 C-13.81550215 -1.24699785 -5.96544581 0.03018568 0 0 Z " fill="#B6B7B8" transform="translate(131.3125,100.75)"/>
<path d="M0 0 C-3.33412469 7.75183991 -12.50612269 11.99373526 -20 15 C-32.14347143 18.62017715 -45.30134766 18.82740407 -56.84765625 13.2890625 C-59 12 -59 12 -61 10 C-58.36 9.34 -55.72 8.68 -53 8 C-53 8.66 -53 9.32 -53 10 C-35.7806755 10.68045629 -21.40279039 8.50432403 -5.7578125 1.171875 C-3 0 -3 0 0 0 Z " fill="#277AA2" transform="translate(183,170)"/>
<path d="M0 0 C4.07711279 1.51004177 6.94329421 4.21781819 9 8 C10.03828711 12.5416232 10.48244385 16.55266845 9 21 C9.4640625 21.8971875 9.4640625 21.8971875 9.9375 22.8125 C11.3390419 25.69802744 11.26996311 27.82793347 11 31 C10.01 32.485 10.01 32.485 9 34 C5.375 34.1875 5.375 34.1875 2 34 C2.57584432 31.61435923 3.22227595 29.33317216 4 27 C2.54686539 23.69008228 1.59192118 22.28907779 -1.6875 20.6875 C-2.450625 20.460625 -3.21375 20.23375 -4 20 C-5.32 21.32 -6.64 22.64 -8 24 C-9.40457737 21.19084526 -9.24895157 19.11189466 -9 16 C-7.8125 13.625 -7.8125 13.625 -6 12 C-3.3125 11.75 -3.3125 11.75 -1 12 C-0.73067479 7.34947128 -0.73067479 7.34947128 -2 3 C-1.01 3 -0.02 3 1 3 C0.67 2.01 0.34 1.02 0 0 Z " fill="#C0C3C4" transform="translate(179,97)"/>
<path d="M0 0 C5.22588808 0.31672049 8.5609835 3.30110819 12 7 C14.49861352 10.61274939 14.29871099 14.38714353 14.25 18.625 C14.25773437 19.305625 14.26546875 19.98625 14.2734375 20.6875 C14.25344122 25.74655878 14.25344122 25.74655878 12 28 C11.01 28 10.02 28 9 28 C8.67 26.02 8.34 24.04 8 22 C7.278125 21.938125 6.55625 21.87625 5.8125 21.8125 C1.20637209 20.48184083 -1.11234907 17.29977457 -3.75 13.4375 C-4.86986042 11.25377218 -5.55524547 9.40167444 -6 7 C-5.34 7 -4.68 7 -4 7 C-3.13375 8.2065625 -3.13375 8.2065625 -2.25 9.4375 C0.459426 12.52323517 1.99407334 12.72686864 6 13 C4.75696561 7.82069003 3.14512215 4.29833361 0 0 Z " fill="#BCC1C3" transform="translate(181,132)"/>
<path d="M0 0 C-0.33 1.32 -0.66 2.64 -1 4 C-1.40089844 3.55914062 -1.80179688 3.11828125 -2.21484375 2.6640625 C-7.30859518 -2.08416093 -14.51195914 -4.95895094 -21.43359375 -5.31640625 C-30.14887924 -4.241919 -36.9143661 2.3278025 -43.00390625 8.14453125 C-45 10 -45 10 -47 11 C-46.6832481 4.82333798 -43.52560549 0.8235896 -40 -4 C-39.52304688 -4.72960937 -39.04609375 -5.45921875 -38.5546875 -6.2109375 C-29.70663002 -16.39287299 -8.03929517 -6.29162231 0 0 Z " fill="#0A6688" transform="translate(149,112)"/>
<path d="M0 0 C0.87978516 0.13728516 0.87978516 0.13728516 1.77734375 0.27734375 C2.43734375 -0.38265625 3.09734375 -1.04265625 3.77734375 -1.72265625 C3.44734375 0.25734375 3.11734375 2.23734375 2.77734375 4.27734375 C1.35421875 4.49390625 1.35421875 4.49390625 -0.09765625 4.71484375 C-3.35124193 5.90696126 -3.35124193 5.90696126 -4.06640625 8.4140625 C-4.55437201 10.69960802 -4.94576917 12.95722095 -5.22265625 15.27734375 C-8.1272465 14.87392844 -9.92150625 14.50548769 -12.28515625 12.71484375 C-14.3559662 10.88011247 -14.3559662 10.88011247 -18.22265625 11.27734375 C-17.89265625 10.28734375 -17.56265625 9.29734375 -17.22265625 8.27734375 C-13.40168386 8.80803436 -11.16094222 9.77435941 -8.22265625 12.27734375 C-9.26990056 7.27384315 -11.01018522 5.02642993 -15.140625 2.3046875 C-18.13235661 0.82846721 -21.12052889 0.24055322 -24.40234375 -0.265625 C-25.00304687 -0.41644531 -25.60375 -0.56726563 -26.22265625 -0.72265625 C-26.55265625 -1.38265625 -26.88265625 -2.04265625 -27.22265625 -2.72265625 C-19.27635999 -6.69580438 -7.86845045 -2.55828354 0 0 Z " fill="#135C7C" transform="translate(175.22265625,104.72265625)"/>
<path d="M0 0 C0.66 0.33 1.32 0.66 2 1 C-18.11373012 22.33962337 -18.11373012 22.33962337 -30 25 C-32.91047868 24.78271475 -33.91027639 24.08345989 -36.0703125 22.07421875 C-36.74835938 21.28660156 -37.42640625 20.49898437 -38.125 19.6875 C-38.80820313 18.90761719 -39.49140625 18.12773437 -40.1953125 17.32421875 C-42.69984848 14.09867998 -44 12.12152948 -44 8 C-41.55369444 9.1290641 -39.50934313 10.35372937 -37.3125 11.9375 C-32.49372082 14.93787194 -27.77959167 17.18943482 -22.01953125 16.796875 C-18.61227439 15.89767655 -16.86369608 14.70538755 -14.1875 12.4375 C-13.33800781 11.72464844 -12.48851562 11.01179687 -11.61328125 10.27734375 C-7.71533545 6.88047917 -3.8275404 3.47622026 0 0 Z " fill="#056588" transform="translate(148,151)"/>
<path d="M0 0 C5.13447946 4.51657648 6.81506764 11.20609887 7.25390625 17.8359375 C7.25046067 21.23327745 7.17828408 24.60765011 7 28 C6.38898438 27.22011719 5.77796875 26.44023437 5.1484375 25.63671875 C1.34039492 20.96321195 -2.19105456 18.62110105 -8 17 C-8.08226668 13.95613276 -7.97608217 11.92824652 -7 9 C-7.91607436 6.25177691 -8.60727617 5.23101402 -11.125 3.75 C-12.053125 3.37875 -12.053125 3.37875 -13 3 C-12.67 2.34 -12.34 1.68 -12 1 C-8.48362119 2.98751846 -6.35638909 4.32998851 -4.4375 7.9375 C-4 11 -4 11 -5.375 13.875 C-5.91125 14.57625 -6.4475 15.2775 -7 16 C-4.6568787 15.74438677 -2.32156597 15.40729228 0 15 C1.24270671 12.51458657 0.95365685 11.23584621 0.625 8.5 C0.53476563 7.7059375 0.44453125 6.911875 0.3515625 6.09375 C0.09653096 3.94895424 0.09653096 3.94895424 -1 2 C-0.67 1.34 -0.34 0.68 0 0 Z " fill="#1E5C79" transform="translate(188,115)"/>
<path d="M0 0 C-9.73579919 7.54713116 -19.62006777 10.3261644 -31.8125 10.4375 C-32.60060059 10.44765137 -33.38870117 10.45780273 -34.20068359 10.46826172 C-39.73049907 10.38558812 -43.92115379 9.18326684 -49 7 C-45.75357153 6.01789923 -42.91606505 5.94025844 -39.53515625 6.02734375 C-33.0725713 6.0813377 -26.83478753 5.42267312 -20.4375 4.5625 C-19.37208984 4.42779297 -18.30667969 4.29308594 -17.20898438 4.15429688 C-11.52408483 3.44479183 -11.52408483 3.44479183 -6 2 C-6 1.34 -6 0.68 -6 0 C-3 -1 -3 -1 0 0 Z " fill="#4987AE" transform="translate(177,177)"/>
<path d="M0 0 C1.77706209 2.66559313 2.87548273 5.0280615 4 8 C-2.39441949 13.97739213 -9.22619248 18.54810658 -18 20 C-15.79376682 15.02757599 -12.32626433 11.26217418 -8 8 C-5.3153455 7.33513247 -3.77674163 7.53720973 -1 8 C-0.67 5.36 -0.34 2.72 0 0 Z " fill="#116280" transform="translate(174,143)"/>
<path d="M0 0 C6.64862104 5.20326864 6.64862104 5.20326864 8 9 C8.19089068 11.58825308 8.27969259 14.0417449 8.25 16.625 C8.25773438 17.305625 8.26546875 17.98625 8.2734375 18.6875 C8.25344122 23.74655878 8.25344122 23.74655878 6 26 C5.01 26 4.02 26 3 26 C3 25.01 3 24.02 3 23 C3.66 23 4.32 23 5 23 C4.04435984 16.35549017 2.91994881 10.05095074 0.5859375 3.7421875 C0 2 0 2 0 0 Z " fill="#B2B3B3" transform="translate(187,134)"/>
<path d="M0 0 C3 2 3 2 3.546875 4.27734375 C3.61390625 5.15519531 3.6809375 6.03304687 3.75 6.9375 C3.86601562 8.25041016 3.86601562 8.25041016 3.984375 9.58984375 C4 12 4 12 3 15 C3.309375 15.598125 3.61875 16.19625 3.9375 16.8125 C5.35103462 19.72271834 5.34013223 21.80275702 5 25 C3.5 26.875 3.5 26.875 2 28 C1.12745748 25.38237243 0.75939377 23.3393705 0.5 20.625 C0.25525502 18.2047441 -0.0150453 15.93480371 -0.5625 13.5625 C-1.26999088 9.41862484 -1.26398297 5.19267078 -1 1 C-0.67 0.67 -0.34 0.34 0 0 Z " fill="#B0B5B8" transform="translate(185,103)"/>
<path d="M0 0 C0 0.66 0 1.32 0 2 C-0.66 2 -1.32 2 -2 2 C-2 2.66 -2 3.32 -2 4 C-5.63 4.66 -9.26 5.32 -13 6 C-13 6.66 -13 7.32 -13 8 C-22.26532591 11.65736549 -32.32099384 11.13660005 -42.125 11.0625 C-43.27226562 11.05798828 -44.41953125 11.05347656 -45.6015625 11.04882812 C-48.40109813 11.03716339 -51.20051986 11.02079614 -54 11 C-53.67 10.01 -53.34 9.02 -53 8 C-52.01 7.67 -51.02 7.34 -50 7 C-50 7.66 -50 8.32 -50 9 C-33.49511394 9.65222382 -19.36322185 7.86738604 -4.22265625 0.953125 C-2 0 -2 0 0 0 Z " fill="#15749D" transform="translate(180,171)"/>
<path d="M0 0 C4.00193803 1.97421014 7.53815751 4.25618267 11.06640625 6.984375 C10.73640625 8.304375 10.40640625 9.624375 10.06640625 10.984375 C9.65648437 10.54222656 9.2465625 10.10007812 8.82421875 9.64453125 C0.89155666 2.15257261 -9.63576079 1.78478661 -19.93359375 0.984375 C-14.08282188 -2.5345675 -6.30200586 -2.18178632 0 0 Z " fill="#0A3A54" transform="translate(137.93359375,105.015625)"/>
<path d="M0 0 C0.66 0.33 1.32 0.66 2 1 C-17.7386428 21.94167521 -17.7386428 21.94167521 -30 25 C-30.66 24.67 -31.32 24.34 -32 24 C-31.01902344 23.42894531 -30.03804688 22.85789063 -29.02734375 22.26953125 C-18.41583623 15.94499333 -8.75874092 8.75874092 0 0 Z " fill="#1A2F43" transform="translate(148,151)"/>
<path d="M0 0 C2.31 0.66 4.62 1.32 7 2 C6.67 5.3 6.34 8.6 6 12 C3.09540975 11.59658469 1.30115 11.22814394 -1.0625 9.4375 C-3.13330995 7.60276872 -3.13330995 7.60276872 -7 8 C-6.67 7.01 -6.34 6.02 -6 5 C-2.17902761 5.53069061 0.06171403 6.49701566 3 9 C2.5359375 7.6078125 2.5359375 7.6078125 2.0625 6.1875 C1.375 4.125 0.6875 2.0625 0 0 Z " fill="#0B5374" transform="translate(164,108)"/>
<path d="M0 0 C2.35526165 2.00197241 3.28925993 3.5892332 4.6875 6.4375 C6.38540645 9.61444214 7.87793832 10.63480581 11.1875 12 C13.29296875 12.890625 13.29296875 12.890625 15 14 C16 17.75 16 17.75 16 21 C15.34 21.33 14.68 21.66 14 22 C13.79375 21.2575 13.5875 20.515 13.375 19.75 C11.5917503 16.18350061 9.32708425 15.12933392 6 13 C2.36296631 9.05988017 0 5.45447451 0 0 Z " fill="#09344E" transform="translate(174,140)"/>
<path d="M0 0 C0.99 0 1.98 0 3 0 C3.50615298 1.26839526 4.00469099 2.53983102 4.5 3.8125 C4.91765625 4.87404297 4.91765625 4.87404297 5.34375 5.95703125 C6 8 6 8 6 11 C5.34 11 4.68 11 4 11 C3.67 10.34 3.34 9.68 3 9 C0.97536745 8.34786708 0.97536745 8.34786708 -1 8 C-1 8.66 -1 9.32 -1 10 C-1.66 10 -2.32 10 -3 10 C-2.69201674 8.51988629 -2.378482 7.04092675 -2.0625 5.5625 C-1.88847656 4.73878906 -1.71445313 3.91507813 -1.53515625 3.06640625 C-1 1 -1 1 0 0 Z " fill="#A7A7A7" transform="translate(219,181)"/>
<path d="M0 0 C0.99 0.66 1.98 1.32 3 2 C1.73569073 6.94229987 0.03993846 9.82576264 -4 13 C-6.1640625 12.62890625 -6.1640625 12.62890625 -8 12 C-7.50628906 11.30132812 -7.01257813 10.60265625 -6.50390625 9.8828125 C-5.86324219 8.97273437 -5.22257813 8.06265625 -4.5625 7.125 C-3.92441406 6.22007812 -3.28632813 5.31515625 -2.62890625 4.3828125 C-1.00481862 2.12261419 -1.00481862 2.12261419 0 0 Z " fill="#DCE7EB" transform="translate(191,158)"/>
<path d="M0 0 C0.99 0 1.98 0 3 0 C6 6.625 6 6.625 6 10 C5.34 10 4.68 10 4 10 C4 9.34 4 8.68 4 8 C2.35 8 0.7 8 -1 8 C-1 8.66 -1 9.32 -1 10 C-1.66 10 -2.32 10 -3 10 C-2.01 6.7 -1.02 3.4 0 0 Z " fill="#9E9E9E" transform="translate(262,181)"/>
<path d="M0 0 C0.99 0 1.98 0 3 0 C5.42857143 6.28571429 5.42857143 6.28571429 4 10 C3.21625 9.814375 2.4325 9.62875 1.625 9.4375 C-0.97089775 8.74037734 -0.97089775 8.74037734 -3 10 C-2.49287967 6.28111761 -1.88391785 3.26545761 0 0 Z " fill="#9E9E9E" transform="translate(305,181)"/>
<path d="M0 0 C0.99 0 1.98 0 3 0 C1.84826645 2.46800047 0.95216435 4.04783565 -1 6 C-3.65537372 6.56520003 -6.29144713 6.73788198 -9 7 C-9 7.66 -9 8.32 -9 9 C-13.87793583 12.25195722 -18.22391379 12.11325659 -24 12 C-24 11.67 -24 11.34 -24 11 C-18.555 10.01 -18.555 10.01 -13 9 C-13 8.34 -13 7.68 -13 7 C-9.17679443 5.57741188 -6.08718695 4.75957724 -2 5 C-2 4.34 -2 3.68 -2 3 C-1.34 3 -0.68 3 0 3 C0 2.01 0 1.02 0 0 Z " fill="#3780A7" transform="translate(180,170)"/>
<path d="M0 0 C2.64 0 5.28 0 8 0 C8 0.66 8 1.32 8 2 C6.35 2 4.7 2 3 2 C3 2.66 3 3.32 3 4 C4.32 4 5.64 4 7 4 C7 4.66 7 5.32 7 6 C5.35 6 3.7 6 2 6 C2 6.99 2 7.98 2 9 C3.65 9 5.3 9 7 9 C7 9.33 7 9.66 7 10 C4.69 10 2.38 10 0 10 C0 6.7 0 3.4 0 0 Z " fill="#9C9C9C" transform="translate(380,181)"/>
<path d="M0 0 C0.16873478 1.43725871 0.33490737 2.87481838 0.5 4.3125 C0.5928125 5.11300781 0.685625 5.91351563 0.78125 6.73828125 C1 9 1 9 1 12 C-0.98 12 -2.96 12 -5 12 C-4.42415568 9.61435923 -3.77772405 7.33317216 -3 5 C-3.38932856 2.85744207 -3.38932856 2.85744207 -4 1 C-2 0 -2 0 0 0 Z " fill="#C9CBCA" transform="translate(186,119)"/>
<path d="M0 0 C0.93134766 0.00322266 1.86269531 0.00644531 2.82226562 0.00976562 C4.26182617 0.02233398 4.26182617 0.02233398 5.73046875 0.03515625 C6.70951172 0.03966797 7.68855469 0.04417969 8.69726562 0.04882812 C11.10422986 0.06056941 13.51106732 0.07699206 15.91796875 0.09765625 C15.91796875 0.42765625 15.91796875 0.75765625 15.91796875 1.09765625 C14.26796875 1.09765625 12.61796875 1.09765625 10.91796875 1.09765625 C10.91796875 1.75765625 10.91796875 2.41765625 10.91796875 3.09765625 C3.32796875 3.09765625 -4.26203125 3.09765625 -12.08203125 3.09765625 C-8.70665312 -0.27772188 -4.58480278 -0.02812762 0 0 Z " fill="#C0CFD7" transform="translate(125.08203125,100.90234375)"/>
<path d="M0 0 C1.65 0 3.3 0 5 0 C5 0.99 5 1.98 5 3 C3.68 2.34 2.36 1.68 1 1 C1 1.99 1 2.98 1 4 C2.65 4.33 4.3 4.66 6 5 C6.625 6.875 6.625 6.875 7 9 C6.34 9.66 5.68 10.32 5 11 C1.875 10.625 1.875 10.625 -1 10 C-0.67 9.01 -0.34 8.02 0 7 C1.32 7.66 2.64 8.32 4 9 C4 8.01 4 7.02 4 6 C2.35 5.67 0.7 5.34 -1 5 C-0.67 3.35 -0.34 1.7 0 0 Z " fill="#969696" transform="translate(275,181)"/>
<path d="M0 0 C2.31 0 4.62 0 7 0 C5.68 0.33 4.36 0.66 3 1 C3 1.99 3 2.98 3 4 C4.32 4 5.64 4 7 4 C7 4.66 7 5.32 7 6 C5.68 6 4.36 6 3 6 C3 6.99 3 7.98 3 9 C4.65 9 6.3 9 8 9 C8 9.33 8 9.66 8 10 C5.36 10 2.72 10 0 10 C0 6.7 0 3.4 0 0 Z " fill="#9D9D9D" transform="translate(338,181)"/>
<path d="M0 0 C1.4540625 0.0309375 1.4540625 0.0309375 2.9375 0.0625 C3.2675 1.0525 3.5975 2.0425 3.9375 3.0625 C2.2875 2.7325 0.6375 2.4025 -1.0625 2.0625 C-1.0625 4.0425 -1.0625 6.0225 -1.0625 8.0625 C-0.0725 8.3925 0.9175 8.7225 1.9375 9.0625 C1.9375 8.4025 1.9375 7.7425 1.9375 7.0625 C2.5975 7.0625 3.2575 7.0625 3.9375 7.0625 C3.2775 8.3825 2.6175 9.7025 1.9375 11.0625 C-0.4375 10.75 -0.4375 10.75 -3.0625 10.0625 C-5.0625 7.0625 -5.0625 7.0625 -4.75 3.9375 C-3.82710098 0.0781041 -3.82710098 0.0781041 0 0 Z " fill="#9C9C9C" transform="translate(292.0625,180.9375)"/>
<path d="M0 0 C1.2375 0.1546875 1.2375 0.1546875 2.5 0.3125 C3.16 1.3025 3.82 2.2925 4.5 3.3125 C1.53 2.8175 1.53 2.8175 -1.5 2.3125 C-1.5 4.2925 -1.5 6.2725 -1.5 8.3125 C-0.51 8.3125 0.48 8.3125 1.5 8.3125 C1.83 7.6525 2.16 6.9925 2.5 6.3125 C1.84 5.9825 1.18 5.6525 0.5 5.3125 C1.82 5.3125 3.14 5.3125 4.5 5.3125 C4.5 6.9625 4.5 8.6125 4.5 10.3125 C-0.92465753 11.6385274 -0.92465753 11.6385274 -3.375 10.25 C-4.97671956 7.49148298 -4.83302312 5.4429173 -4.5 2.3125 C-2.5 0.3125 -2.5 0.3125 0 0 Z " fill="#929292" transform="translate(234.5,180.6875)"/>
<path d="M0 0 C0.99 0 1.98 0 3 0 C3.99 1.98 4.98 3.96 6 6 C6.33 4.02 6.66 2.04 7 0 C7.33 0 7.66 0 8 0 C8 3.3 8 6.6 8 10 C5 9 5 9 3 6 C2.67 7.32 2.34 8.64 2 10 C1.34 10 0.68 10 0 10 C0 6.7 0 3.4 0 0 Z " fill="#929292" transform="translate(352,181)"/>
<path d="M0 0 C0.66 0 1.32 0 2 0 C2.33 2.64 2.66 5.28 3 8 C3.99 8.33 4.98 8.66 6 9 C6 6.03 6 3.06 6 0 C6.66 0 7.32 0 8 0 C8.05399736 1.45792884 8.09279177 2.91642712 8.125 4.375 C8.14820313 5.18710938 8.17140625 5.99921875 8.1953125 6.8359375 C8 9 8 9 6 11 C3.4375 10.75 3.4375 10.75 1 10 C-0.60725635 6.78548731 -0.05748185 3.56387464 0 0 Z " fill="#989898" transform="translate(245,181)"/>
<path d="M0 0 C1.65 0 3.3 0 5 0 C5.33 0.99 5.66 1.98 6 3 C5.34 3 4.68 3 4 3 C4 2.34 4 1.68 4 1 C3.01 1 2.02 1 1 1 C1 1.99 1 2.98 1 4 C2.65 4.33 4.3 4.66 6 5 C6 6.65 6 8.3 6 10 C3.69 10 1.38 10 -1 10 C-1.33 9.01 -1.66 8.02 -2 7 C-0.02 7.66 1.96 8.32 4 9 C4 8.01 4 7.02 4 6 C2.35 5.67 0.7 5.34 -1 5 C-0.67 3.35 -0.34 1.7 0 0 Z " fill="#929292" transform="translate(395,181)"/>
<path d="M0 0 C0.33 0 0.66 0 1 0 C2.87443946 11.63856502 2.87443946 11.63856502 0.73046875 14.9765625 C-0.9375 16.3125 -0.9375 16.3125 -4 18 C-3.690625 17.401875 -3.38125 16.80375 -3.0625 16.1875 C-0.85818903 11.6492127 -1.17322078 8.88153138 -1.94140625 4.05859375 C-1.96074219 3.37925781 -1.98007813 2.69992188 -2 2 C-1.34 1.34 -0.68 0.68 0 0 Z " fill="#132A3B" transform="translate(154,132)"/>
<path d="M0 0 C3.3 0 6.6 0 10 0 C10.66 1.65 11.32 3.3 12 5 C9.44345185 5.95582656 8.39658231 6.17802782 5.859375 5.0390625 C5.16328125 4.57242188 4.4671875 4.10578125 3.75 3.625 C3.04359375 3.16351563 2.3371875 2.70203125 1.609375 2.2265625 C1.07828125 1.82179688 0.5471875 1.41703125 0 1 C0 0.67 0 0.34 0 0 Z " fill="#71777B" transform="translate(168,95)"/>
<path d="M0 0 C2.33333333 2.33333333 4.66666667 4.66666667 7 7 C8.31747324 7.69748583 9.64914193 8.36959957 11 9 C8.36 9.33 5.72 9.66 3 10 C0.64551835 7.44931155 0.01672076 6.28982642 -0.1875 2.75 C-0.125625 1.8425 -0.06375 0.935 0 0 Z " fill="#C9D0D3" transform="translate(108,168)"/>
<path d="M0 0 C1.9375 0.25 1.9375 0.25 4 1 C4.66 1.99 5.32 2.98 6 4 C5.01 4.495 5.01 4.495 4 5 C3.67 5.99 3.34 6.98 3 8 C1.68 7.67 0.36 7.34 -1 7 C-1.04254356 5.00045254 -1.04080783 2.99958364 -1 1 C-0.67 0.67 -0.34 0.34 0 0 Z " fill="#EBEBEB" transform="translate(233,182)"/>
<path d="M0 0 C3 2 3 2 3.58203125 4.3125 C3.65808594 5.199375 3.73414063 6.08625 3.8125 7 C3.90144531 7.886875 3.99039063 8.77375 4.08203125 9.6875 C4 12 4 12 2 14 C-1.62870159 4.58997722 -1.62870159 4.58997722 0 0 Z " fill="#AEB0B1" transform="translate(185,103)"/>
<path d="M0 0 C2.38671875 0.296875 2.38671875 0.296875 5 1 C7.25871586 5.0501112 8.4221879 8.35593314 8 13 C7.60167969 12.15695313 7.60167969 12.15695313 7.1953125 11.296875 C5.90668966 8.82069778 4.43869639 6.56155118 2.875 4.25 C2.33617187 3.45078125 1.79734375 2.6515625 1.2421875 1.828125 C0.83226562 1.22484375 0.42234375 0.6215625 0 0 Z " fill="#C8CCCE" transform="translate(181,132)"/>
<path d="M0 0 C2.64 0 5.28 0 8 0 C7.01 0.33 6.02 0.66 5 1 C5 3.97 5 6.94 5 10 C4.34 10 3.68 10 3 10 C3 7.36 3 4.72 3 2 C2.01 2 1.02 2 0 2 C0 1.34 0 0.68 0 0 Z " fill="#949494" transform="translate(366,181)"/>
<path d="M0 0 C-3.28491373 2.18994248 -4.83095639 2.35277339 -8.6875 2.625 C-10.17830078 2.73714844 -10.17830078 2.73714844 -11.69921875 2.8515625 C-12.83810547 2.92503906 -12.83810547 2.92503906 -14 3 C-9.25115925 -0.73481767 -5.9188012 -1.52197745 0 0 Z " fill="#558DB6" transform="translate(163,184)"/>
<path d="M0 0 C-1.01007276 2.6075248 -1.68518363 3.80441446 -4.09375 5.30078125 C-4.8878125 5.63464844 -5.681875 5.96851563 -6.5 6.3125 C-7.69109375 6.83263672 -7.69109375 6.83263672 -8.90625 7.36328125 C-11 8 -11 8 -13 7 C-11.21190303 5.82786955 -9.41940875 4.66244474 -7.625 3.5 C-6.62726563 2.8503125 -5.62953125 2.200625 -4.6015625 1.53125 C-2 0 -2 0 0 0 Z " fill="#133854" transform="translate(129,168)"/>
<path d="M0 0 C2.80045623 3.14591933 3.35261589 5.067064 3.1875 9.25 C3.16042969 10.14203125 3.13335937 11.0340625 3.10546875 11.953125 C3.07066406 12.62859375 3.03585938 13.3040625 3 14 C0.61116832 11.61116832 0.44500885 10.27192547 -0.1875 7 C-0.36667969 6.113125 -0.54585937 5.22625 -0.73046875 4.3125 C-1 2 -1 2 0 0 Z " fill="#A3A6A7" transform="translate(192,139)"/>
<path d="M0 0 C2.3797234 2.3797234 2.58749232 3.74424795 3.25 7 C3.44078125 7.886875 3.6315625 8.77375 3.828125 9.6875 C3.88484375 10.450625 3.9415625 11.21375 4 12 C3.34 12.66 2.68 13.32 2 14 C0.66416101 9.15758367 -0.25328119 5.06562383 0 0 Z " fill="#BBBBBA" transform="translate(184,108)"/>
<path d="M0 0 C3.78786597 0.5260925 6.17152224 1.38103911 9 4 C9 4.66 9 5.32 9 6 C8.278125 5.690625 7.55625 5.38125 6.8125 5.0625 C4.19692691 4.07439461 1.74881018 3.4712246 -1 3 C-0.67 2.01 -0.34 1.02 0 0 Z " fill="#0E2030" transform="translate(158,113)"/>
<path d="M0 0 C2.5625 1.5625 2.5625 1.5625 5 4 C4.8125 7.75 4.8125 7.75 4 11 C1.54176828 7.31265242 0.98757384 4.30300029 0 0 Z " fill="#B6B9BA" transform="translate(187,134)"/>
<path d="M0 0 C2.9719385 1.12451727 5.33440687 2.22293791 8 4 C7.67 5.32 7.34 6.64 7 8 C6.608125 7.5875 6.21625 7.175 5.8125 6.75 C3.65940626 4.67115087 1.35436159 2.84531043 -1 1 C-0.67 0.67 -0.34 0.34 0 0 Z " fill="#0F2E44" transform="translate(141,108)"/>
<path d="M0 0 C1.32 0.66 2.64 1.32 4 2 C3.67 3.98 3.34 5.96 3 8 C2.34 8 1.68 8 1 8 C-0.625 5.5 -0.625 5.5 -2 3 C-1.01 3 -0.02 3 1 3 C0.67 2.01 0.34 1.02 0 0 Z " fill="#D8D9D9" transform="translate(179,97)"/>
<path d="M0 0 C0.99 0.66 1.98 1.32 3 2 C1.94124926 5.40312738 0.99097846 8.01353231 -1 11 C-1.66 10.67 -2.32 10.34 -3 10 C-2.34 9.01 -1.68 8.02 -1 7 C-0.60612212 4.67612053 -0.26513915 2.34206251 0 0 Z " fill="#D1D3D2" transform="translate(191,158)"/>
<path d="M0 0 C2.96865509 2.54456151 4.3619751 5.48994665 6 9 C5.34 9.66 4.68 10.32 4 11 C3.32591692 9.73308493 2.66099503 8.46129251 2 7.1875 C1.62875 6.47980469 1.2575 5.77210938 0.875 5.04296875 C0 3 0 3 0 0 Z " fill="#124462" transform="translate(174,140)"/>
<path d="M0 0 C0.99 0 1.98 0 3 0 C2.69381595 3.67420866 2.24228216 4.78135513 -0.5625 7.3125 C-1.366875 7.869375 -2.17125 8.42625 -3 9 C-2.690625 8.443125 -2.38125 7.88625 -2.0625 7.3125 C-0.94238179 4.87459567 -0.43962636 2.63775814 0 0 Z " fill="#0B1E2F" transform="translate(153,141)"/>
<path d="M0 0 C3.47691793 1.15897264 4.22015595 1.8640843 6 5 C6.1875 8.25 6.1875 8.25 6 11 C5.7525 10.443125 5.505 9.88625 5.25 9.3125 C4.00800235 6.84535202 4.00800235 6.84535202 1.875 4.375 C0 2 0 2 0 0 Z " fill="#0E2941" transform="translate(181,134)"/>
<path d="M0 0 C0.33 0 0.66 0 1 0 C1 3.3 1 6.6 1 10 C0.01 9.67 -0.98 9.34 -2 9 C-2.6875 6.9375 -2.6875 6.9375 -3 5 C-2.01 5.495 -2.01 5.495 -1 6 C-0.67 4.02 -0.34 2.04 0 0 Z " fill="#848484" transform="translate(359,181)"/>
<path d="M0 0 C0.99 0 1.98 0 3 0 C2.75 1.875 2.75 1.875 2 4 C-0.0625 5.25 -0.0625 5.25 -2 6 C-1.34 4.02 -0.68 2.04 0 0 Z " fill="#959595" transform="translate(219,181)"/>
<path d="M0 0 C0.33 0 0.66 0 1 0 C1 2.64 1 5.28 1 8 C0.01 7.67 -0.98 7.34 -2 7 C-2 6.34 -2 5.68 -2 5 C-2.66 4.67 -3.32 4.34 -4 4 C-3.01 3.67 -2.02 3.34 -1 3 C-0.67 2.01 -0.34 1.02 0 0 Z " fill="#C8C9C9" transform="translate(191,149)"/>
<path d="M0 0 C0.66 0.33 1.32 0.66 2 1 C1.67 1.33 1.34 1.66 1 2 C1.66 2.66 2.32 3.32 3 4 C0.36 4.33 -2.28 4.66 -5 5 C-3.35 3.35 -1.7 1.7 0 0 Z " fill="#1E779A" transform="translate(121,97)"/>
<path d="M0 0 C-0.33 0.66 -0.66 1.32 -1 2 C-3.32156597 2.40729228 -5.6568787 2.74438677 -8 3 C-8.33 2.34 -8.66 1.68 -9 1 C-5.92677456 0.08941469 -3.19902639 -0.08886184 0 0 Z " fill="#4783AD" transform="translate(153,184)"/>
<path d="M0 0 C0 2.64 0 5.28 0 8 C-0.99 8 -1.98 8 -3 8 C-2.67 7.01 -2.34 6.02 -2 5 C-2.38932856 2.85744207 -2.38932856 2.85744207 -3 1 C-1 0 -1 0 0 0 Z " fill="#D1D2D2" transform="translate(185,119)"/>
</svg>
